<?xml version="1.0" encoding="UTF-8"?>
<svg id="uuid-f1b4f9fb-6794-4158-8e8f-a436ced933f9" data-name="Warstwa 1" xmlns="http://www.w3.org/2000/svg" viewBox="0 0 954.97 312">
  <defs>
    <style>
      .uuid-9041c665-ca82-419a-b7ae-9384b490c33f {
        fill: #90caf9;
      }

      .uuid-5ac2db04-13df-4705-8918-0d9454accecd {
        fill: #42a5f5;
      }
    </style>
  </defs>
  <path class="uuid-5ac2db04-13df-4705-8918-0d9454accecd" d="m153.98,194.36c-9.5,4.74-17.28,5.76-27.59,5.76-43.97,0-66.71-35.48-66.71-70.96s22.74-70.65,66.71-70.65,66.71,35.48,66.71,70.65c0,4.64-.41,9.28-1.2,13.83-1.48,8.45,2.82,16.87,10.32,21.03l.36.2c12.08,6.69,27.36-.38,29.69-13.99,1.16-6.78,1.76-13.82,1.76-21.07,0-62.16-44.88-109.77-107.65-109.77S18.44,67,18.44,129.16s45.18,110.08,107.95,110.08c21.53,0,40.63-5.76,57.01-15.47l9.58,9.71c6.77,6.86,17.82,6.93,24.68.16h0c6.87-6.78,6.92-17.86.11-24.7l-18.76-18.87c-9.87-9.93-25.68-10.69-36.48-1.78-3.27,2.7-6.34,4.98-8.54,6.07Z"/>
  <path class="uuid-5ac2db04-13df-4705-8918-0d9454accecd" d="m325.42,201.64c-21.53,0-29.72-14.86-29.72-34.57v-66.26c0-10.63-8.62-19.26-19.26-19.26s-19.26,8.62-19.26,19.26v74.45c0,43.43,29.87,63.98,68.69,63.98h0c38.81,0,68.69-20.55,68.69-63.98v-74.45c0-10.63-8.62-19.26-19.26-19.26s-19.26,8.62-19.26,19.26v66.26c0,19.71-8.19,34.57-29.72,34.57"/>
  <path class="uuid-5ac2db04-13df-4705-8918-0d9454accecd" d="m417.7,38.32c.08-10.58,9.56-20.06,20.14-20.14,13.01-.1,22.99,11.39,20.38,24.5-1.59,7.99-8.03,14.43-16.02,16.02-13.11,2.61-24.6-7.36-24.5-20.38Zm20.47,43.24h0c10.63,0,19.26,8.62,19.26,19.26v115.23c0,10.63-8.62,19.26-19.26,19.26h0c-10.63,0-19.26-8.62-19.26-19.26v-115.23c0-10.63,8.62-19.26,19.26-19.26Z"/>
  <path class="uuid-5ac2db04-13df-4705-8918-0d9454accecd" d="m602.47,217.71h0c0,9.71-7.87,17.59-17.59,17.59h-84.17c-11.13,0-20.14-9.02-20.14-20.14h0c0-4.44,1.47-8.75,4.17-12.27l66.18-86.15h-50.04c-9.71,0-17.59-7.87-17.59-17.59h0c0-9.71,7.87-17.59,17.59-17.59h78.73c11.12,0,20.13,9.01,20.13,20.13h0c0,4.45-1.47,8.77-4.19,12.29l-66.46,86.15h55.8c9.71,0,17.59,7.87,17.59,17.59Z"/>
  <path class="uuid-9041c665-ca82-419a-b7ae-9384b490c33f" d="m625.62,38.32c.09-10.91,9.23-20.05,20.14-20.14,13.01-.1,22.99,11.39,20.38,24.5-1.59,7.99-8.03,14.43-16.02,16.02-13.11,2.61-24.6-7.36-24.5-20.38Zm20.47,43.24h0c10.63,0,19.26,8.62,19.26,19.26v115.23c0,10.63-8.62,19.26-19.26,19.26h0c-10.63,0-19.26-8.62-19.26-19.26v-115.23c0-10.63,8.62-19.26,19.26-19.26Z"/>
  <path class="uuid-9041c665-ca82-419a-b7ae-9384b490c33f" d="m763.26,81.55h-14.73c0-14.98,3.46-27.48,19.18-30.04,8.32-1.36,14.3-8.76,13.84-17.18h0c-.52-9.51-8.97-16.63-18.43-15.51-40.98,4.88-53.11,34.83-53.11,62.73h-3.2c-9.63,0-18.03,7.42-18.32,17.05-.3,9.96,7.69,18.13,17.58,18.13h3.94v98.5c0,10.54,8.12,19.74,18.66,20.05s19.85-8.42,19.85-19.25v-99.31h15.47c9.89,0,17.88-8.17,17.58-18.13-.29-9.63-8.69-17.05-18.32-17.05Z"/>
  <path class="uuid-9041c665-ca82-419a-b7ae-9384b490c33f" d="m935.18,107.66l-69.15,174.74c-2.73,6.9-9.39,11.43-16.81,11.43h0c-12.9,0-21.66-13.13-16.69-25.04l17.31-41.51c.29-.69.28-1.46-.02-2.14l-51.63-117.27c-5.46-12.39,3.62-26.31,17.16-26.31h0c7.72,0,14.65,4.73,17.46,11.92l32.41,82.88c.92,2.34,4.25,2.29,5.09-.08l29.14-82.03c2.7-7.61,9.91-12.69,17.98-12.69h0c13.47,0,22.7,13.58,17.74,26.1Z"/>
</svg>